# xmcd
#
# Track frame offsets: 
#        183
#        18055
#        31423
#        45895
#        61188
#        77300
#        86683
#        100655
#        118680
#        141330
#
# Disc length: 2049 seconds
#
# Revision: 6
# Processed by: cddbd v1.5.2PL0 Copyright (c) Steve Scherf et al.
# Submitted via: ExactAudioCopyFreeDBPlugin 1.0
#
DISCID=6a07ff0a
DTITLE=Blues Band - Official Blues Band Bootleg Album
DYEAR=1980
DGENRE=Blues
TTITLE0=Talk To Me Baby
TTITLE1=Flatfoot Sam
TTITLE2=Two Bones And A Pick
TTITLE3=Someday Baby
TTITLE4=Boom Boom (Out Go The Lights)
TTITLE5=Come On In
TTITLE6=Death Letter
TTITLE7=Going Home
TTITLE8=I Don't Know
TTITLE9=Diddy Wah Diddy
EXTD=YEAR: 1980
EXTT0=
EXTT1=
EXTT2=
EXTT3=
EXTT4=
EXTT5=
EXTT6=
EXTT7=
EXTT8=
EXTT9=
PLAYORDER=
